<?xml version="1.0" encoding="UTF-8" standalone="no"?>
<!-- Created with Inkscape (http://www.inkscape.org/) -->

<svg
   xmlns:dc="http://purl.org/dc/elements/1.1/"
   xmlns:cc="http://creativecommons.org/ns#"
   xmlns:rdf="http://www.w3.org/1999/02/22-rdf-syntax-ns#"
   xmlns:svg="http://www.w3.org/2000/svg"
   xmlns="http://www.w3.org/2000/svg"
   xmlns:sodipodi="http://sodipodi.sourceforge.net/DTD/sodipodi-0.dtd"
   xmlns:inkscape="http://www.inkscape.org/namespaces/inkscape"
   width="47.999992"
   height="48"
   id="svg2"
   sodipodi:version="0.32"
   inkscape:version="0.48.3.1 r9886"
   sodipodi:docname="migasfree-white.svg"
   inkscape:output_extension="org.inkscape.output.svg.inkscape"
   inkscape:export-filename="/home/alberto/Documentos/Documentacion/proyectos/migas/logos/migas2_1280.png"
   inkscape:export-xdpi="359.45001"
   inkscape:export-ydpi="359.45001"
   version="1.0">
  <sodipodi:namedview
     id="base"
     pagecolor="#ffffff"
     bordercolor="#666666"
     borderopacity="1.0"
     inkscape:pageopacity="0.0"
     inkscape:pageshadow="2"
     inkscape:zoom="10.666667"
     inkscape:cx="5.8593716"
     inkscape:cy="24"
     inkscape:document-units="px"
     inkscape:current-layer="layer1"
     showgrid="false"
     inkscape:window-width="1421"
     inkscape:window-height="734"
     inkscape:window-x="55"
     inkscape:window-y="88"
     showborder="true"
     borderlayer="false"
     inkscape:showpageshadow="false"
     inkscape:window-maximized="0" />
  <defs
     id="defs4">
    <inkscape:path-effect
       effect="bend_path"
       id="path-effect2627"
       bendpath="m 413.44443,348.18108 40.98866,0"
       prop_scale="1" />
    <inkscape:path-effect
       vertical="false"
       scale_y_rel="false"
       is_visible="true"
       effect="bend_path"
       id="path-effect2627-6"
       bendpath="m 413.44439,349.77521 40.98866,0"
       prop_scale="1" />
    <inkscape:path-effect
       vertical="false"
       scale_y_rel="false"
       is_visible="true"
       effect="bend_path"
       id="path-effect2627-8"
       bendpath="m 371.44439,355.02521 40.98866,0"
       prop_scale="1" />
  </defs>
  <metadata
     id="metadata7">
    <rdf:RDF>
      <cc:Work
         rdf:about="">
        <dc:format>image/svg+xml</dc:format>
        <dc:type
           rdf:resource="http://purl.org/dc/dcmitype/StillImage" />
        <dc:title></dc:title>
      </cc:Work>
    </rdf:RDF>
  </metadata>
  <g
     id="layer1"
     inkscape:groupmode="layer"
     inkscape:label="Capa 1"
     transform="translate(-409.93872,-324.46271)">
    <g
       id="g3853"
       transform="translate(41.999999,-4.9687498)">
      <path
         inkscape:connector-curvature="0"
         sodipodi:nodetypes="ccccc"
         inkscape:original-d="m 379.08242,369.10302 c 2.99758,1.42991 34.95237,-2.54782 33.2879,-3.85295 0.0451,-9.43377 -12.70236,-24.60846 -12.70236,-24.60846 -17.04623,0.38524 -27.36462,4.49224 -27.36462,5.87202 -1.07656,0 -2.11798,6.1216 6.8073,22.64292"
         inkscape:path-effect="#path-effect2627-8"
         inkscape:export-ydpi="28.218977"
         inkscape:export-xdpi="28.218977"
         inkscape:export-filename="/home/alberto/Documentos/Documentacion/proyectos/Proyectos/migas/logos/bueno/logo_64.png"
         style="opacity:0.3;fill:none;stroke:#000000;stroke-width:7.01134396;stroke-linecap:round;stroke-linejoin:round;stroke-miterlimit:4;stroke-opacity:1;stroke-dasharray:none"
         d="m 378.95059,369.10305 c 3.00943,1.42991 35.09047,-2.54782 33.41942,-3.85295 0.0453,-9.43377 -12.75254,-24.60846 -12.75254,-24.60846 -17.11358,0.38524 -27.47274,4.49224 -27.47274,5.87202 -1.08081,0 -2.12635,6.1216 6.8342,22.64292"
         id="path7004-3" />
      <path
         inkscape:connector-curvature="0"
         id="path3180-3"
         d="m 389.93773,338.82112 c -1.12178,0.0938 -2.27791,0.71708 -3.08828,2.12397 -0.72632,1.369 -0.8485,3.44301 -0.54524,5.17454 0.37558,2.21816 1.46477,4.1256 2.79796,4.50462 1.25181,0.3766 2.54802,-0.22677 3.62399,-1.35302 0.8114,-0.84107 1.58243,-2.05308 1.82794,-3.69818 0.31833,-1.99565 -0.27012,-4.22967 -1.2718,-5.28674 -0.95305,-1.04873 -2.10048,-1.42047 -3.21336,-1.4708 -0.0437,0.002 -0.0875,0.004 -0.13121,0.006 l 0,0 z"
         style="opacity:0.3;fill:#000000;fill-opacity:1;fill-rule:nonzero;stroke:#000000;stroke-width:0.11851699;stroke-linecap:round;stroke-linejoin:round;stroke-miterlimit:4;stroke-opacity:1;stroke-dasharray:none;stroke-dashoffset:200" />
      <path
         transform="matrix(0.32275185,0,0,0.42956212,330.26994,307.31021)"
         d="m 215,100.2803 c 0,3.3137 -4.02944,6 -9,6 -4.97056,0 -9,-2.6863 -9,-6 0,-3.313712 4.02944,-6.000004 9,-6.000004 4.97056,0 9,2.686292 9,6.000004 z"
         sodipodi:ry="6"
         sodipodi:rx="9"
         sodipodi:cy="100.2803"
         sodipodi:cx="206"
         id="path3190-0"
         style="opacity:0.3;fill:#000000;fill-opacity:1;fill-rule:nonzero;stroke:none"
         sodipodi:type="arc" />
    </g>
    <path
       inkscape:connector-curvature="0"
       style="fill:none;stroke:#000000;stroke-width:0.1752836px;stroke-linecap:butt;stroke-linejoin:miter;stroke-opacity:1"
       d="m 417.25543,350.67385 c 0.0584,0 0.11685,0 0,0 z"
       id="path4849" />
    <g
       id="g3812">
      <path
         inkscape:connector-curvature="0"
         sodipodi:nodetypes="ccccc"
         inkscape:original-d="m 421.08246,362.25889 c 2.99758,1.42991 34.95237,-2.54782 33.2879,-3.85295 0.0451,-9.43377 -12.70236,-24.60846 -12.70236,-24.60846 -17.04623,0.38524 -27.36462,4.49224 -27.36462,5.87202 -1.07656,0 -2.11798,6.1216 6.8073,22.64292"
         inkscape:path-effect="#path-effect2627"
         inkscape:export-ydpi="28.218977"
         inkscape:export-xdpi="28.218977"
         inkscape:export-filename="/home/alberto/Documentos/Documentacion/proyectos/Proyectos/migas/logos/bueno/logo_64.png"
         style="fill:none;stroke:#dfdbd2;stroke-width:7.01134395999999960;stroke-linecap:round;stroke-linejoin:round;stroke-miterlimit:4;stroke-opacity:1;stroke-dasharray:none"
         d="m 420.95063,362.25892 c 3.00943,1.42991 35.09047,-2.54782 33.41942,-3.85295 0.0453,-9.43377 -12.75254,-24.60846 -12.75254,-24.60846 -17.11358,0.38524 -27.47274,4.49224 -27.47274,5.87202 -1.08081,0 -2.12635,6.1216 6.8342,22.64292"
         id="path7004" />
      <path
         inkscape:connector-curvature="0"
         id="path3180"
         d="m 431.93777,331.97699 c -1.12178,0.0938 -2.27791,0.71708 -3.08828,2.12397 -0.72632,1.369 -0.8485,3.44301 -0.54524,5.17454 0.37558,2.21816 1.46477,4.1256 2.79796,4.50462 1.25181,0.3766 2.54802,-0.22677 3.62399,-1.35302 0.8114,-0.84107 1.58243,-2.05308 1.82794,-3.69818 0.31833,-1.99565 -0.27012,-4.22967 -1.2718,-5.28674 -0.95305,-1.04873 -2.10048,-1.42047 -3.21336,-1.4708 -0.0437,0.002 -0.0875,0.004 -0.13121,0.006 l 0,0 z"
         style="fill:#dfdbd2;fill-opacity:1;fill-rule:nonzero;stroke:#dfdbd2;stroke-width:0.11851699000000000;stroke-linecap:round;stroke-linejoin:round;stroke-miterlimit:4;stroke-opacity:1;stroke-dasharray:none;stroke-dashoffset:200" />
      <path
         transform="matrix(0.32275185,0,0,0.42956212,372.26998,300.46608)"
         d="m 215,100.2803 c 0,3.3137 -4.02944,6 -9,6 -4.97056,0 -9,-2.6863 -9,-6 0,-3.313712 4.02944,-6.000004 9,-6.000004 4.97056,0 9,2.686292 9,6.000004 z"
         sodipodi:ry="6"
         sodipodi:rx="9"
         sodipodi:cy="100.2803"
         sodipodi:cx="206"
         id="path3190"
         style="fill:#dfdbd2;fill-opacity:1;fill-rule:nonzero;stroke:none"
         sodipodi:type="arc" />
    </g>
  </g>
</svg>
