<?xml version="1.0" encoding="UTF-8" standalone="no"?>
<!-- Created with Inkscape (http://www.inkscape.org/) -->

<svg
   xmlns:dc="http://purl.org/dc/elements/1.1/"
   xmlns:cc="http://creativecommons.org/ns#"
   xmlns:rdf="http://www.w3.org/1999/02/22-rdf-syntax-ns#"
   xmlns:svg="http://www.w3.org/2000/svg"
   xmlns="http://www.w3.org/2000/svg"
   xmlns:sodipodi="http://sodipodi.sourceforge.net/DTD/sodipodi-0.dtd"
   xmlns:inkscape="http://www.inkscape.org/namespaces/inkscape"
   version="1.0"
   width="47.999992"
   height="48"
   id="svg2"
   inkscape:version="0.48.4 r9939"
   sodipodi:docname="migasfree-warning-dark.svg">
  <sodipodi:namedview
     pagecolor="#ffffff"
     bordercolor="#666666"
     borderopacity="1"
     objecttolerance="10"
     gridtolerance="10"
     guidetolerance="10"
     inkscape:pageopacity="0"
     inkscape:pageshadow="2"
     inkscape:window-width="640"
     inkscape:window-height="480"
     id="namedview17"
     showgrid="false"
     inkscape:zoom="4.9166667"
     inkscape:cx="23.999996"
     inkscape:cy="24"
     inkscape:window-x="858"
     inkscape:window-y="147"
     inkscape:window-maximized="0"
     inkscape:current-layer="svg2" />
  <defs
     id="defs4">
    <inkscape:path-effect
       effect="bend_path"
       id="path-effect2627" />
    <inkscape:path-effect
       effect="bend_path"
       id="path-effect2627-8" />
  </defs>
  <metadata
     id="metadata7">
    <rdf:RDF>
      <cc:Work
         rdf:about="">
        <dc:format>image/svg+xml</dc:format>
        <dc:type
           rdf:resource="http://purl.org/dc/dcmitype/StillImage" />
        <dc:title />
      </cc:Work>
    </rdf:RDF>
  </metadata>
  <g
     transform="translate(-409.93872,-324.46271)"
     id="layer1">
    <g
       transform="translate(41.999999,-4.9687498)"
       id="g3853">
      <path
         d="m 378.95059,369.10305 c 3.00943,1.42991 35.09047,-2.54782 33.41942,-3.85295 0.0453,-9.43377 -12.75254,-24.60846 -12.75254,-24.60846 -17.11358,0.38524 -27.47274,4.49224 -27.47274,5.87202 -1.08081,0 -2.12635,6.1216 6.8342,22.64292"
         id="path7004-3"
         style="opacity:0.3;fill:none;stroke:#000000;stroke-width:7.01134396;stroke-linecap:round;stroke-linejoin:round;stroke-miterlimit:4;stroke-opacity:1;stroke-dasharray:none" />
      <path
         d="m 389.93773,338.82112 c -1.12178,0.0938 -2.27791,0.71708 -3.08828,2.12397 -0.72632,1.369 -0.8485,3.44301 -0.54524,5.17454 0.37558,2.21816 1.46477,4.1256 2.79796,4.50462 1.25181,0.3766 2.54802,-0.22677 3.62399,-1.35302 0.8114,-0.84107 1.58243,-2.05308 1.82794,-3.69818 0.31833,-1.99565 -0.27012,-4.22967 -1.2718,-5.28674 -0.95305,-1.04873 -2.10048,-1.42047 -3.21336,-1.4708 -0.0437,0.002 -0.0875,0.004 -0.13121,0.006 l 0,0 z"
         id="path3180-3"
         style="opacity:0.3;fill:#000000;fill-opacity:1;fill-rule:nonzero;stroke:#000000;stroke-width:0.11851699;stroke-linecap:round;stroke-linejoin:round;stroke-miterlimit:4;stroke-opacity:1;stroke-dasharray:none;stroke-dashoffset:200" />
      <path
         d="m 215,100.2803 a 9,6 0 1 1 -18,0 9,6 0 1 1 18,0 z"
         transform="matrix(0.32275185,0,0,0.42956212,330.26994,307.31021)"
         id="path3190-0"
         style="opacity:0.3;fill:#000000;fill-opacity:1;fill-rule:nonzero;stroke:none" />
    </g>
    <path
       d="m 417.25543,350.67385 c 0.0584,0 0.11685,0 0,0 z"
       id="path4849"
       style="fill:none;stroke:#000000;stroke-width:0.1752836px;stroke-linecap:butt;stroke-linejoin:miter;stroke-opacity:1" />
    <g
       id="g3812">
      <path
         d="m 420.95063,362.25892 c 3.00943,1.42991 35.09047,-2.54782 33.41942,-3.85295 0.0453,-9.43377 -12.75254,-24.60846 -12.75254,-24.60846 -17.11358,0.38524 -27.47274,4.49224 -27.47274,5.87202 -1.08081,0 -2.12635,6.1216 6.8342,22.64292"
         id="path7004"
         style="fill:none;stroke:#dfdbd2;stroke-width:7.01134396;stroke-linecap:round;stroke-linejoin:round;stroke-miterlimit:4;stroke-opacity:1;stroke-dasharray:none" />
      <path
         d="m 431.93777,331.97699 c -1.12178,0.0938 -2.27791,0.71708 -3.08828,2.12397 -0.72632,1.369 -0.8485,3.44301 -0.54524,5.17454 0.37558,2.21816 1.46477,4.1256 2.79796,4.50462 1.25181,0.3766 2.54802,-0.22677 3.62399,-1.35302 0.8114,-0.84107 1.58243,-2.05308 1.82794,-3.69818 0.31833,-1.99565 -0.27012,-4.22967 -1.2718,-5.28674 -0.95305,-1.04873 -2.10048,-1.42047 -3.21336,-1.4708 -0.0437,0.002 -0.0875,0.004 -0.13121,0.006 l 0,0 z"
         id="path3180"
         style="fill:#dfdbd2;fill-opacity:1;fill-rule:nonzero;stroke:#dfdbd2;stroke-width:0.11851699;stroke-linecap:round;stroke-linejoin:round;stroke-miterlimit:4;stroke-opacity:1;stroke-dasharray:none;stroke-dashoffset:200" />
      <path
         d="m 215,100.2803 a 9,6 0 1 1 -18,0 9,6 0 1 1 18,0 z"
         transform="matrix(0.32275185,0,0,0.42956212,372.26998,300.46608)"
         id="path3190"
         style="fill:#dfdbd2;fill-opacity:1;fill-rule:nonzero;stroke:none" />
    </g>
  </g>
  <g
     transform="matrix(0.06300629,0,0,0.0651698,17.427448,18.103643)"
     id="g3841">
    <path
       sodipodi:nodetypes="scccscccsscccc"
       inkscape:connector-curvature="0"
       id="path4845-4"
       d="m 434.45603,454.99489 c 19.50971,0 35.31901,-8.04095 43.34304,-22.06213 8.00126,-14.02118 6.93797,-31.71567 -2.9687,-48.53047 L 294.11459,77.344834 c -9.82318,-16.716088 -24.77668,-26.280818 -40.99933,-26.280818 -16.22266,0 -31.17615,9.56473 -40.99932,26.280818 L 31.400141,384.40229 c -9.90667,16.8148 -10.96996,34.50929 -2.9687,48.53047 8.02403,14.02118 23.83333,22.06213 43.34304,22.06213 z M 228.56248,317.91008 c 0.31124,-1.02482 -5.53403,1.66281 -4.75971,1.01754 0.77432,0.64527 17.02614,-0.68948 17.33738,0.33534 -0.52,0.1251 -12.05766,-1.22778 -12.57767,-1.35288 z"
       style="fill:#ffffff;fill-opacity:1;fill-rule:nonzero;stroke:none" />
    <path
       sodipodi:nodetypes="scccscccsscccc"
       inkscape:connector-curvature="0"
       id="path4845"
       d="m 433.84119,454.46548 c 19.50971,0 35.31901,-8.04095 43.34304,-22.06213 8.00126,-14.02118 6.93797,-31.71567 -2.9687,-48.53047 L 293.49975,76.81542 C 283.67657,60.09933 268.72307,50.5346 252.50042,50.5346 c -16.22266,0 -31.17615,9.56473 -40.99932,26.28082 L 30.7853,383.87288 c -9.90667,16.8148 -10.96996,34.50929 -2.9687,48.53047 8.02403,14.02118 23.83333,22.06213 43.34304,22.06213 z M 66.50347,410.27871 C 66.81471,409.25389 251.7261,95.36664 252.50042,94.72137 c 0.77432,0.64527 185.6857,314.53252 185.99694,315.55734 -0.52,0.1251 -371.47388,0.1251 -371.99389,0 z"
       style="fill:#c0111e;fill-opacity:1;fill-rule:nonzero;stroke:none" />
    <path
       inkscape:connector-curvature="0"
       id="path9807"
       d="m 252.5,160.90297 c -8.98281,0.007 -16.2989,2.88616 -21.875,8.59375 -5.59807,5.70645 -8.375,13.23269 -8.375,22.59375 0,10.3289 2.8483,27.39412 8.5625,51.21875 l 9.5,39.75 c 4.74635,19.68998 7.51554,27.54662 8.375,41.40625 l 3.8125,0 3.8125,0 c 0.85946,-13.85963 3.62865,-21.71627 8.375,-41.40625 l 9.5,-39.75 c 5.7142,-23.82463 8.5625,-40.88985 8.5625,-51.21875 0,-9.36106 -2.77693,-16.8873 -8.375,-22.59375 -5.5761,-5.70759 -12.89219,-8.58712 -21.875,-8.59375 z"
       style="fill:#c0111e;fill-opacity:1;fill-rule:nonzero;stroke:none" />
    <path
       sodipodi:nodetypes="sssss"
       style="fill:#c0111e;fill-opacity:1;stroke:none"
       d="m 252.5,399.46548 c 17.94925,0 32.5,-14.55073 32.5,-32.49999 0,-17.94925 -14.55075,-32.50001 -32.5,-32.50001 -17.94926,0 -32.5,14.55076 -32.5,32.50001 0,17.94926 14.55074,32.49999 32.5,32.49999 z"
       id="path3124-1"
       inkscape:connector-curvature="0" />
  </g>
</svg>
