<?xml version="1.0" encoding="UTF-8" standalone="no"?>
<!-- Created with Inkscape (http://www.inkscape.org/) -->

<svg
   xmlns:dc="http://purl.org/dc/elements/1.1/"
   xmlns:cc="http://creativecommons.org/ns#"
   xmlns:rdf="http://www.w3.org/1999/02/22-rdf-syntax-ns#"
   xmlns:svg="http://www.w3.org/2000/svg"
   xmlns="http://www.w3.org/2000/svg"
   version="1.1"
   width="512"
   height="512"
   viewBox="0 0 512 512"
   id="Layer_1"
   xml:space="preserve"><metadata
     id="metadata13"><rdf:RDF><cc:Work
         rdf:about=""><dc:format>image/svg+xml</dc:format><dc:type
           rdf:resource="http://purl.org/dc/dcmitype/StillImage" /><dc:title></dc:title></cc:Work></rdf:RDF></metadata><defs
     id="defs11" /><g
     id="g3"
     style="fill:#ff6600;fill-opacity:1"><path
       d="m 447.434,132.449 -16.971,-16.971 -21.305,21.305 c 2.96,14.063 -1.009,29.293 -11.929,40.214 -17.184,17.183 -45.043,17.183 -62.226,0 -17.184,-17.183 -17.184,-45.042 0,-62.226 10.92,-10.92 26.15,-14.889 40.213,-11.929 L 396.521,81.537 379.551,64.566 C 367.835,52.85 247.016,52.85 235.301,64.566 L 47.918,251.949 c -11.716,11.716 -11.716,30.711 0,42.427 l 169.706,169.706 c 11.715,11.715 30.711,11.715 42.427,0 L 447.434,276.698 c 11.715,-11.716 11.715,-132.534 0,-144.249 z"
       id="path5"
       style="fill:#ff6600;fill-opacity:1" /><path
       d="m 361.874,150.126 c 4.686,4.686 12.284,4.686 16.97,0 l 90.51,-90.51 c 4.687,-4.687 4.687,-12.285 0,-16.971 -4.686,-4.686 -12.284,-4.686 -16.97,0 l -90.51,90.51 c -4.686,4.687 -4.686,12.285 0,16.971 z"
       id="path7"
       style="fill:#ff6600;fill-opacity:1" /></g></svg>