<?xml version="1.0" encoding="UTF-8" standalone="no"?>
<!-- Created with Inkscape (http://www.inkscape.org/) -->

<svg
   xmlns:dc="http://purl.org/dc/elements/1.1/"
   xmlns:cc="http://creativecommons.org/ns#"
   xmlns:rdf="http://www.w3.org/1999/02/22-rdf-syntax-ns#"
   xmlns:svg="http://www.w3.org/2000/svg"
   xmlns="http://www.w3.org/2000/svg"
   xmlns:sodipodi="http://sodipodi.sourceforge.net/DTD/sodipodi-0.dtd"
   xmlns:inkscape="http://www.inkscape.org/namespaces/inkscape"
   version="1.0"
   width="47.999992"
   height="48"
   id="svg2"
   inkscape:version="0.48.4 r9939"
   sodipodi:docname="migasfree-error-dark.svg">
  <sodipodi:namedview
     pagecolor="#ffffff"
     bordercolor="#666666"
     borderopacity="1"
     objecttolerance="10"
     gridtolerance="10"
     guidetolerance="10"
     inkscape:pageopacity="0"
     inkscape:pageshadow="2"
     inkscape:window-width="1146"
     inkscape:window-height="596"
     id="namedview17"
     showgrid="false"
     inkscape:zoom="4.9166667"
     inkscape:cx="23.999996"
     inkscape:cy="24"
     inkscape:window-x="716"
     inkscape:window-y="345"
     inkscape:window-maximized="0"
     inkscape:current-layer="svg2" />
  <defs
     id="defs4">
    <inkscape:path-effect
       effect="bend_path"
       id="path-effect2627" />
    <inkscape:path-effect
       effect="bend_path"
       id="path-effect2627-8" />
  </defs>
  <metadata
     id="metadata7">
    <rdf:RDF>
      <cc:Work
         rdf:about="">
        <dc:format>image/svg+xml</dc:format>
        <dc:type
           rdf:resource="http://purl.org/dc/dcmitype/StillImage" />
        <dc:title />
      </cc:Work>
    </rdf:RDF>
  </metadata>
  <g
     transform="translate(-409.93872,-324.46271)"
     id="layer1">
    <g
       transform="translate(41.999999,-4.9687498)"
       id="g3853">
      <path
         d="m 378.95059,369.10305 c 3.00943,1.42991 35.09047,-2.54782 33.41942,-3.85295 0.0453,-9.43377 -12.75254,-24.60846 -12.75254,-24.60846 -17.11358,0.38524 -27.47274,4.49224 -27.47274,5.87202 -1.08081,0 -2.12635,6.1216 6.8342,22.64292"
         id="path7004-3"
         style="opacity:0.3;fill:none;stroke:#000000;stroke-width:7.01134396;stroke-linecap:round;stroke-linejoin:round;stroke-miterlimit:4;stroke-opacity:1;stroke-dasharray:none" />
      <path
         d="m 389.93773,338.82112 c -1.12178,0.0938 -2.27791,0.71708 -3.08828,2.12397 -0.72632,1.369 -0.8485,3.44301 -0.54524,5.17454 0.37558,2.21816 1.46477,4.1256 2.79796,4.50462 1.25181,0.3766 2.54802,-0.22677 3.62399,-1.35302 0.8114,-0.84107 1.58243,-2.05308 1.82794,-3.69818 0.31833,-1.99565 -0.27012,-4.22967 -1.2718,-5.28674 -0.95305,-1.04873 -2.10048,-1.42047 -3.21336,-1.4708 -0.0437,0.002 -0.0875,0.004 -0.13121,0.006 l 0,0 z"
         id="path3180-3"
         style="opacity:0.3;fill:#000000;fill-opacity:1;fill-rule:nonzero;stroke:#000000;stroke-width:0.11851699;stroke-linecap:round;stroke-linejoin:round;stroke-miterlimit:4;stroke-opacity:1;stroke-dasharray:none;stroke-dashoffset:200" />
      <path
         d="m 215,100.2803 a 9,6 0 1 1 -18,0 9,6 0 1 1 18,0 z"
         transform="matrix(0.32275185,0,0,0.42956212,330.26994,307.31021)"
         id="path3190-0"
         style="opacity:0.3;fill:#000000;fill-opacity:1;fill-rule:nonzero;stroke:none" />
    </g>
    <path
       d="m 417.25543,350.67385 c 0.0584,0 0.11685,0 0,0 z"
       id="path4849"
       style="fill:none;stroke:#000000;stroke-width:0.1752836px;stroke-linecap:butt;stroke-linejoin:miter;stroke-opacity:1" />
    <g
       id="g3812">
      <path
         d="m 420.95063,362.25892 c 3.00943,1.42991 35.09047,-2.54782 33.41942,-3.85295 0.0453,-9.43377 -12.75254,-24.60846 -12.75254,-24.60846 -17.11358,0.38524 -27.47274,4.49224 -27.47274,5.87202 -1.08081,0 -2.12635,6.1216 6.8342,22.64292"
         id="path7004"
         style="fill:none;stroke:#dfdbd2;stroke-width:7.01134396;stroke-linecap:round;stroke-linejoin:round;stroke-miterlimit:4;stroke-opacity:1;stroke-dasharray:none" />
      <path
         d="m 431.93777,331.97699 c -1.12178,0.0938 -2.27791,0.71708 -3.08828,2.12397 -0.72632,1.369 -0.8485,3.44301 -0.54524,5.17454 0.37558,2.21816 1.46477,4.1256 2.79796,4.50462 1.25181,0.3766 2.54802,-0.22677 3.62399,-1.35302 0.8114,-0.84107 1.58243,-2.05308 1.82794,-3.69818 0.31833,-1.99565 -0.27012,-4.22967 -1.2718,-5.28674 -0.95305,-1.04873 -2.10048,-1.42047 -3.21336,-1.4708 -0.0437,0.002 -0.0875,0.004 -0.13121,0.006 l 0,0 z"
         id="path3180"
         style="fill:#dfdbd2;fill-opacity:1;fill-rule:nonzero;stroke:#dfdbd2;stroke-width:0.11851699;stroke-linecap:round;stroke-linejoin:round;stroke-miterlimit:4;stroke-opacity:1;stroke-dasharray:none;stroke-dashoffset:200" />
      <path
         d="m 215,100.2803 a 9,6 0 1 1 -18,0 9,6 0 1 1 18,0 z"
         transform="matrix(0.32275185,0,0,0.42956212,372.26998,300.46608)"
         id="path3190"
         style="fill:#dfdbd2;fill-opacity:1;fill-rule:nonzero;stroke:none" />
    </g>
  </g>
  <g
     transform="translate(6.4067797e-7,0.20339437)"
     id="g2994">
    <path
       inkscape:connector-curvature="0"
       id="path10140"
       d="m 35.186439,47.762737 c 6.945681,0 12.57627,-5.539535 12.57627,-12.372906 0,-6.833366 -5.630589,-12.372916 -12.57627,-12.372916 -6.945682,0 -12.576268,5.53955 -12.576268,12.372916 0,6.833371 5.630586,12.372906 12.576268,12.372906 z"
       style="fill:#c0111e;fill-opacity:1;stroke:none"
       sodipodi:nodetypes="sssss" />
    <path
       id="path7227"
       style="fill:#ffffff;fill-opacity:1;fill-rule:nonzero;stroke:none"
       d="M 43.440906,30.675415 30.563921,43.696103 26.931976,40.104242 39.808961,27.083554 43.440906,30.675415 z"
       inkscape:connector-curvature="0" />
    <path
       id="path7227-3"
       style="fill:#ffffff;fill-opacity:1;fill-rule:nonzero;stroke:none"
       d="M 40.02386,43.501462 27.433752,30.484689 30.95919,27.074809 43.549298,40.091582 40.02386,43.501462 z"
       inkscape:connector-curvature="0" />
  </g>
</svg>
